<?xml version="1.0" standalone="no"?>
<!DOCTYPE svg PUBLIC "-//W3C//DTD SVG 20010904//EN"
 "http://www.w3.org/TR/2001/REC-SVG-20010904/DTD/svg10.dtd">
<svg version="1.0" xmlns="http://www.w3.org/2000/svg"
 width="400.000000pt" height="200.000000pt" viewBox="0 0 400.000000 200.000000"
 preserveAspectRatio="xMidYMid meet">
<metadata>
Created by potrace 1.16, written by Peter Selinger 2001-2019
</metadata>
<g transform="translate(0.000000,200.000000) scale(0.100000,-0.100000)"
fill="#000000" stroke="none">
<path d="M604 1299 c-11 -6 -28 -26 -38 -44 -16 -29 -18 -52 -14 -164 3 -71 9
-136 15 -143 6 -7 20 -29 31 -50 l21 -36 -21 -19 c-37 -33 -156 -199 -187
-261 -36 -71 -39 -92 -12 -92 13 0 24 13 36 43 30 75 181 287 204 287 11 0
126 -227 136 -265 12 -54 6 -165 -12 -206 -13 -31 -22 -39 -42 -39 -43 0 -94
19 -125 46 -28 25 -29 26 -22 105 6 79 6 79 -18 79 -28 0 -36 -28 -36 -121 0
-55 3 -62 36 -93 37 -35 122 -66 181 -66 34 0 73 38 73 71 0 10 5 21 10 24 14
9 12 140 -4 205 -13 54 -81 200 -117 252 -26 36 -24 44 14 92 19 23 52 72 75
110 58 97 56 128 -15 236 -30 46 -120 72 -169 49z m128 -83 c15 -17 32 -48 38
-68 9 -33 7 -45 -14 -90 -30 -64 -87 -150 -102 -155 -6 -2 -21 19 -33 46 -17
41 -21 69 -21 165 0 106 2 116 21 130 31 21 79 10 111 -28z"/>
<path d="M1345 1205 c-22 -14 -54 -31 -70 -39 -45 -21 -160 -137 -186 -187
-24 -48 -35 -152 -20 -193 17 -43 67 -69 130 -68 46 2 53 0 41 -11 -78 -64
-150 -206 -150 -296 0 -81 30 -103 165 -118 96 -10 116 -7 182 33 64 38 73 41
73 19 0 -8 6 -15 13 -16 40 -3 157 1 187 6 46 8 188 76 228 109 17 15 41 29
54 31 12 3 63 23 114 45 50 22 97 40 104 40 9 0 11 -16 8 -58 -9 -123 -141
-323 -245 -370 -60 -27 -249 -72 -304 -72 -36 0 -39 2 -25 15 9 9 21 24 28 33
17 23 93 84 138 111 52 31 237 123 298 148 28 12 52 27 52 34 0 50 -404 -149
-515 -255 -50 -48 -77 -98 -60 -114 12 -12 138 -5 195 11 30 8 82 21 115 27
88 18 143 50 206 122 118 134 164 231 164 343 0 64 -2 70 -22 73 -24 4 -80
-14 -174 -53 -33 -15 -66 -24 -72 -22 -7 3 -30 -13 -52 -34 -42 -40 -126 -85
-210 -114 -74 -25 -228 -5 -160 21 20 8 19 50 -1 58 -10 4 -26 -4 -42 -22 -15
-16 -54 -44 -87 -62 -33 -18 -66 -37 -73 -43 -13 -11 -95 -5 -179 13 l-51 11
-4 47 c-7 80 37 168 122 249 27 26 104 72 112 67 12 -8 48 15 48 31 0 21 -48
30 -85 16 -36 -13 -177 -6 -207 10 -12 6 -19 23 -20 47 0 20 -2 44 -3 52 -1 8
6 36 15 61 25 67 115 149 223 201 70 35 87 47 85 63 -4 29 -36 29 -83 0z"/>
<path d="M3005 924 c-49 -42 -142 -116 -205 -165 -217 -168 -225 -175 -228
-198 -4 -26 13 -42 35 -34 7 3 13 11 13 18 0 7 18 27 41 46 23 19 64 55 93 80
28 26 107 92 176 147 180 145 194 158 186 170 -4 7 -10 12 -14 12 -4 0 -47
-35 -97 -76z"/>
</g>
</svg>
